<?xml version="1.0" encoding="utf-8"?>
<!-- Generator: Adobe Illustrator 22.0.1, SVG Export Plug-In . SVG Version: 6.00 Build 0)  -->
<svg version="1.1" id="earring" xmlns="http://www.w3.org/2000/svg" xmlns:xlink="http://www.w3.org/1999/xlink" x="0px" y="0px"
	 viewBox="0 0 566.9 566.9" style="enable-background:new 0 0 566.9 566.9;" xml:space="preserve">
<style type="text/css">
	.st0{fill:url(#SVGID_1_);}
	.st1{fill:#FFFFFF;}
	.st2{opacity:0.73;fill:#FFFFFF;}
	.st3{opacity:0.51;fill:#FFFFFF;}
	.st4{opacity:0.59;fill:#FFFFFF;}
	.st5{opacity:0.69;fill:#FFFFFF;}
	.st6{opacity:0.46;fill:#FFFFFF;}
</style>
<linearGradient id="SVGID_1_" gradientUnits="userSpaceOnUse" x1="-526.1002" y1="713.0938" x2="-115.546" y2="330.1603" gradientTransform="matrix(-0.6821 0.7312 -0.7312 -0.6821 434.8094 874.3592)">
	<stop  offset="0" style="stop-color:#161B44"/>
	<stop  offset="9.764931e-02" style="stop-color:#2F2B58"/>
	<stop  offset="0.3056" style="stop-color:#70548A"/>
	<stop  offset="0.5343" style="stop-color:#BD86C7"/>
	<stop  offset="0.7525" style="stop-color:#FF93B7"/>
	<stop  offset="0.9829" style="stop-color:#F3A776"/>
</linearGradient>
<path class="st0" d="M22.8,154.2c-4.4,56.5,22.7,113.4,42.3,158.3c45.7,104.3,125.9,214,239.6,246.3
	c113.7,32.3,184.1-75.1,175.8-188.4c-3.3-45.5,12.6-117.5,29.3-165.2c38.9-110.9-18.6-189.6-132-199.6
	C264.5-4.4,33.7,13.5,22.8,154.2z"/>
<circle class="st1" cx="153.3" cy="109.7" r="1"/>
<circle class="st1" cx="339" cy="38.7" r="2.7"/>
<circle class="st1" cx="370.8" cy="118.6" r="1.3"/>
<circle class="st2" cx="280.1" cy="140.3" r="2.3"/>
<circle class="st3" cx="166.3" cy="215.1" r="3.7"/>
<circle class="st4" cx="83.8" cy="169.2" r="2.6"/>
<circle class="st1" cx="224.2" cy="37.3" r="1.4"/>
<circle class="st5" cx="451.4" cy="173.4" r="1.6"/>
<circle class="st1" cx="457.8" cy="88.7" r="1.7"/>
<circle class="st3" cx="168.5" cy="195.1" r="2.1"/>
<circle class="st1" cx="158.2" cy="98" r="0.7"/>
<circle class="st6" cx="301.2" cy="239.9" r="2.1"/>
<circle class="st1" cx="406" cy="35.1" r="3.2"/>
<circle class="st1" cx="77.2" cy="78.4" r="2.3"/>
<circle class="st1" cx="290" cy="114.3" r="0.7"/>
</svg>
