<?xml version="1.0" encoding="utf-8"?>
<!-- Generator: Adobe Illustrator 22.0.1, SVG Export Plug-In . SVG Version: 6.00 Build 0)  -->
<svg version="1.1" id="Calque_1" xmlns="http://www.w3.org/2000/svg" xmlns:xlink="http://www.w3.org/1999/xlink" x="0px" y="0px"
	 viewBox="0 0 200 200" style="enable-background:new 0 0 200 200;" xml:space="preserve">
<style type="text/css">
	.st0{fill:url(#SVGID_1_);}
</style>
<linearGradient id="SVGID_1_" gradientUnits="userSpaceOnUse" x1="40.3505" y1="100" x2="159.6495" y2="100">
	<stop  offset="0" style="stop-color:#FF6297"/>
	<stop  offset="1" style="stop-color:#FFA563"/>
</linearGradient>
<path class="st0" d="M153,86.6L67.3,21.5C56.2,13.1,40.4,21,40.4,34.9v130.3c0,13.9,15.9,21.8,26.9,13.4l85.7-65.1
	C161.9,106.6,161.9,93.4,153,86.6z M59.7,97.5c0,0.1,0,0.1-0.1,0.1c-0.1,0-0.1,0-0.2,0c-0.9-1.1-2-1.6-3.3-1.6
	c-0.6,0-1.1,0.1-1.6,0.3c-0.5,0.2-0.9,0.5-1.3,0.8c-0.3,0.4-0.6,0.8-0.8,1.3c-0.2,0.5-0.3,1-0.3,1.6c0,0.6,0.1,1.1,0.3,1.6
	c0.2,0.5,0.5,0.9,0.8,1.3c0.4,0.4,0.8,0.7,1.3,0.9c0.5,0.2,1,0.3,1.6,0.3c1.2,0,2.3-0.5,3.3-1.6c0,0,0.1-0.1,0.2,0
	c0.1,0,0.1,0.1,0.1,0.1v4.7c0,0.1,0,0.1-0.1,0.1l-0.4,0.1c-0.6,0.2-1.2,0.4-1.7,0.5c-0.5,0.1-1.1,0.2-1.6,0.2
	c-1.1,0-2.1-0.2-3.1-0.6c-1-0.4-1.8-1-2.6-1.7c-0.7-0.7-1.3-1.6-1.8-2.6c-0.5-1-0.7-2.1-0.7-3.3c0-1.2,0.2-2.3,0.7-3.3
	c0.4-1,1-1.9,1.8-2.6c0.7-0.7,1.6-1.3,2.6-1.7c1-0.4,2-0.6,3.1-0.6c0.6,0,1.2,0.1,1.8,0.2c0.6,0.1,1.2,0.3,1.9,0.6
	c0.1,0,0.1,0.1,0.1,0.1V97.5z M70.9,107.6c0,0.1-0.1,0.1-0.1,0.1h-8.7c-0.1,0-0.1-0.1-0.1-0.1V92.4c0-0.1,0.1-0.1,0.1-0.1h4
	c0.1,0,0.1,0.1,0.1,0.1v11.7h4.6c0.1,0,0.1,0.1,0.1,0.1V107.6z M76.9,107.6c0,0.1-0.1,0.1-0.1,0.1h-4c-0.1,0-0.1-0.1-0.1-0.1V92.4
	c0-0.1,0.1-0.1,0.1-0.1h4c0.1,0,0.1,0.1,0.1,0.1V107.6z M91.1,97.5c0,0.1,0,0.1-0.1,0.1c-0.1,0-0.1,0-0.2,0c-0.9-1.1-2-1.6-3.3-1.6
	c-0.6,0-1.1,0.1-1.6,0.3c-0.5,0.2-0.9,0.5-1.3,0.8c-0.3,0.4-0.6,0.8-0.8,1.3c-0.2,0.5-0.3,1-0.3,1.6c0,0.6,0.1,1.1,0.3,1.6
	c0.2,0.5,0.5,0.9,0.8,1.3c0.4,0.4,0.8,0.7,1.3,0.9c0.5,0.2,1,0.3,1.6,0.3c1.2,0,2.3-0.5,3.3-1.6c0,0,0.1-0.1,0.2,0
	c0.1,0,0.1,0.1,0.1,0.1v4.7c0,0.1,0,0.1-0.1,0.1l-0.4,0.1c-0.6,0.2-1.2,0.4-1.7,0.5c-0.5,0.1-1.1,0.2-1.6,0.2
	c-1.1,0-2.1-0.2-3.1-0.6c-1-0.4-1.8-1-2.6-1.7c-0.7-0.7-1.3-1.6-1.8-2.6c-0.5-1-0.7-2.1-0.7-3.3c0-1.2,0.2-2.3,0.7-3.3
	c0.4-1,1-1.9,1.8-2.6c0.7-0.7,1.6-1.3,2.6-1.7c1-0.4,2-0.6,3.1-0.6c0.6,0,1.2,0.1,1.8,0.2c0.6,0.1,1.2,0.3,1.9,0.6
	c0.1,0,0.1,0.1,0.1,0.1V97.5z M108.3,107.8h-5.1c0,0-0.1,0-0.1-0.1l-4.9-6.3v6.2c0,0.1-0.1,0.1-0.1,0.1h-4c-0.1,0-0.1-0.1-0.1-0.1
	V92.4c0-0.1,0.1-0.1,0.1-0.1h4c0.1,0,0.1,0.1,0.1,0.1v5.9l4.6-5.9c0,0,0.1-0.1,0.1-0.1h4.9c0.1,0,0.1,0,0.1,0.1c0,0.1,0,0.1,0,0.2
	l-6,7.1l6.5,7.9c0,0,0,0.1,0,0.2C108.4,107.7,108.4,107.8,108.3,107.8z M135.4,107.7c0,0-0.1,0.1-0.1,0.1h-3.9
	c-0.1,0-0.1-0.1-0.1-0.1l-1.2-8.2l-3.4,8.3c0,0.1-0.1,0.1-0.1,0.1h-1.6c-0.1,0-0.1,0-0.1-0.1l-3.2-8.3l-1.2,8.2
	c0,0.1-0.1,0.1-0.1,0.1h-3.9c0,0-0.1,0-0.1-0.1s0-0.1,0-0.1l2.6-15.2c0-0.1,0.1-0.1,0.1-0.1h3.9c0.1,0,0.1,0,0.1,0.1l2.9,7.8
	l2.9-7.8c0-0.1,0.1-0.1,0.1-0.1h3.9c0.1,0,0.1,0.1,0.1,0.1l2.6,15.2C135.5,107.6,135.4,107.7,135.4,107.7z M146.6,95.7
	c0,0.1-0.1,0.1-0.1,0.1h-4.6v2.3h4.3c0.1,0,0.1,0.1,0.1,0.1v3.4c0,0.1-0.1,0.1-0.1,0.1h-4.3v2.3h4.6c0.1,0,0.1,0.1,0.1,0.1v3.3
	c0,0.1-0.1,0.1-0.1,0.1h-8.7c-0.1,0-0.1-0.1-0.1-0.1V92.4c0-0.1,0.1-0.1,0.1-0.1h8.7c0.1,0,0.1,0.1,0.1,0.1V95.7z"/>
</svg>
