<?xml version="1.0" encoding="utf-8"?>
<!-- Generator: Adobe Illustrator 22.0.1, SVG Export Plug-In . SVG Version: 6.00 Build 0)  -->
<svg version="1.1" id="Calque_1" xmlns="http://www.w3.org/2000/svg" xmlns:xlink="http://www.w3.org/1999/xlink" x="0px" y="0px"
	 viewBox="0 0 200 200" style="enable-background:new 0 0 200 200;" xml:space="preserve">
<style type="text/css">
	.st0{fill:url(#SVGID_1_);}
</style>
<linearGradient id="SVGID_1_" gradientUnits="userSpaceOnUse" x1="17.3033" y1="91.9054" x2="180.5225" y2="91.9054">
	<stop  offset="0" style="stop-color:#FF6297"/>
	<stop  offset="1" style="stop-color:#FFA563"/>
</linearGradient>
<path class="st0" d="M163.6,32.4H34.2c-13.9,0-21.9,16-13.4,27.1l64.7,85.2c6.7,8.9,20.1,8.9,26.9,0l64.7-85.2
	C185.5,48.4,177.6,32.4,163.6,32.4z M54,59.6c0,0.1,0,0.1-0.1,0.2c-0.1,0-0.1,0-0.2-0.1c-1.1-1.3-2.4-1.9-3.9-1.9
	c-0.7,0-1.3,0.1-1.9,0.4c-0.6,0.2-1.1,0.6-1.5,1c-0.4,0.4-0.8,0.9-1,1.5c-0.2,0.6-0.4,1.2-0.4,1.9c0,0.7,0.1,1.4,0.4,1.9
	c0.2,0.6,0.6,1.1,1,1.5c0.4,0.4,0.9,0.8,1.5,1c0.6,0.2,1.2,0.4,1.9,0.4c1.5,0,2.8-0.6,4-1.9c0.1-0.1,0.1-0.1,0.2,0
	c0.1,0,0.1,0.1,0.1,0.2v5.6c0,0.1,0,0.1-0.1,0.2l-0.5,0.2c-0.7,0.3-1.4,0.5-2.1,0.6c-0.6,0.1-1.3,0.2-1.9,0.2
	c-1.3,0-2.5-0.2-3.7-0.7c-1.2-0.5-2.2-1.2-3.1-2c-0.9-0.9-1.6-1.9-2.1-3.1c-0.5-1.2-0.8-2.5-0.8-4c0-1.4,0.3-2.7,0.8-3.9
	c0.5-1.2,1.3-2.2,2.1-3.1c0.9-0.9,1.9-1.5,3.1-2c1.2-0.5,2.4-0.7,3.7-0.7c0.7,0,1.5,0.1,2.2,0.2c0.7,0.2,1.5,0.4,2.2,0.7
	c0.1,0,0.1,0.1,0.1,0.2V59.6z M67.4,71.7c0,0.1-0.1,0.2-0.2,0.2H56.9c-0.1,0-0.2-0.1-0.2-0.2V53.5c0-0.1,0.1-0.2,0.2-0.2h4.7
	c0.1,0,0.2,0.1,0.2,0.2v14h5.5c0.1,0,0.2,0.1,0.2,0.2V71.7z M74.6,71.7c0,0.1-0.1,0.2-0.2,0.2h-4.7c-0.1,0-0.2-0.1-0.2-0.2V53.5
	c0-0.1,0.1-0.2,0.2-0.2h4.7c0.1,0,0.2,0.1,0.2,0.2V71.7z M91.6,59.6c0,0.1,0,0.1-0.1,0.2c-0.1,0-0.1,0-0.2-0.1
	c-1.1-1.3-2.4-1.9-3.9-1.9c-0.7,0-1.3,0.1-1.9,0.4c-0.6,0.2-1.1,0.6-1.5,1c-0.4,0.4-0.8,0.9-1,1.5c-0.2,0.6-0.4,1.2-0.4,1.9
	c0,0.7,0.1,1.4,0.4,1.9c0.2,0.6,0.6,1.1,1,1.5c0.4,0.4,0.9,0.8,1.5,1c0.6,0.2,1.2,0.4,1.9,0.4c1.5,0,2.8-0.6,4-1.9
	c0.1-0.1,0.1-0.1,0.2,0c0.1,0,0.1,0.1,0.1,0.2v5.6c0,0.1,0,0.1-0.1,0.2L91,71.6c-0.7,0.3-1.4,0.5-2.1,0.6c-0.6,0.1-1.3,0.2-1.9,0.2
	c-1.3,0-2.5-0.2-3.7-0.7c-1.2-0.5-2.2-1.2-3.1-2c-0.9-0.9-1.6-1.9-2.1-3.1c-0.5-1.2-0.8-2.5-0.8-4c0-1.4,0.3-2.7,0.8-3.9
	c0.5-1.2,1.3-2.2,2.1-3.1c0.9-0.9,1.9-1.5,3.1-2c1.2-0.5,2.4-0.7,3.7-0.7c0.7,0,1.5,0.1,2.2,0.2c0.7,0.2,1.5,0.4,2.2,0.7
	c0.1,0,0.1,0.1,0.1,0.2V59.6z M112.4,71.8c0,0.1-0.1,0.1-0.2,0.1h-6.1c-0.1,0-0.1,0-0.1-0.1l-5.9-7.5v7.4c0,0.1-0.1,0.2-0.2,0.2
	h-4.7c-0.1,0-0.2-0.1-0.2-0.2V53.5c0-0.1,0.1-0.2,0.2-0.2h4.7c0.1,0,0.2,0.1,0.2,0.2v7l5.5-7.1c0,0,0.1-0.1,0.1-0.1h5.9
	c0.1,0,0.1,0,0.2,0.1c0,0.1,0,0.1,0,0.2l-7.1,8.5l7.8,9.5C112.4,71.6,112.4,71.7,112.4,71.8z M144.7,71.8c0,0-0.1,0.1-0.1,0.1h-4.7
	c-0.1,0-0.2-0.1-0.2-0.1l-1.5-9.9l-4.1,9.9c0,0.1-0.1,0.1-0.2,0.1h-1.9c-0.1,0-0.1,0-0.2-0.1l-3.8-9.9l-1.5,9.8
	c0,0.1-0.1,0.1-0.2,0.1h-4.7c-0.1,0-0.1,0-0.1-0.1c0,0,0-0.1,0-0.1l3.1-18.2c0-0.1,0.1-0.1,0.2-0.1h4.7c0.1,0,0.1,0,0.2,0.1l3.5,9.3
	l3.5-9.3c0-0.1,0.1-0.1,0.2-0.1h4.7c0.1,0,0.2,0.1,0.2,0.1l3.1,18.2C144.7,71.7,144.7,71.8,144.7,71.8z M158.1,57.5
	c0,0.1-0.1,0.2-0.2,0.2h-5.5v2.7h5.1c0.1,0,0.2,0.1,0.2,0.2v4c0,0.1-0.1,0.2-0.2,0.2h-5.1v2.8h5.5c0.1,0,0.2,0.1,0.2,0.2v4
	c0,0.1-0.1,0.2-0.2,0.2h-10.4c-0.1,0-0.2-0.1-0.2-0.2V53.5c0-0.1,0.1-0.2,0.2-0.2h10.4c0.1,0,0.2,0.1,0.2,0.2V57.5z"/>
</svg>
