<?xml version="1.0" encoding="utf-8"?>
<!-- Generator: Adobe Illustrator 22.0.1, SVG Export Plug-In . SVG Version: 6.00 Build 0)  -->
<svg version="1.1" id="Calque_1" xmlns="http://www.w3.org/2000/svg" xmlns:xlink="http://www.w3.org/1999/xlink" x="0px" y="0px"
	 viewBox="0 0 1920 1080" style="enable-background:new 0 0 1920 1080;" xml:space="preserve">
<style type="text/css">
	.st0{opacity:0.47;fill:url(#SVGID_1_);}
</style>
<linearGradient id="SVGID_1_" gradientUnits="userSpaceOnUse" x1="-37" y1="144" x2="1987" y2="144">
	<stop  offset="0" style="stop-color:#095BA6"/>
	<stop  offset="0.1395" style="stop-color:#256EAD"/>
	<stop  offset="0.4421" style="stop-color:#6E9DC0"/>
	<stop  offset="0.8817" style="stop-color:#E1E8DE"/>
	<stop  offset="0.9829" style="stop-color:#FDFAE5"/>
</linearGradient>
<path class="st0" d="M0,0v216.3C33.2,259.9,85.5,288,144.5,288c53.3,0,101.2-22.9,134.4-59.5c8.9,2.9,18.3,4.5,28.1,4.5
	c49.7,0,90-40.3,90-90c0-2-0.1-4-0.2-6c0.1,0,0.1,0,0.2,0c24.6,0,47-9.9,63.2-25.9c3.8,8.2,12.1,13.9,21.8,13.9
	c13.3,0,24-10.7,24-24c0-0.2,0-0.5,0-0.7c9.8,4.3,20.6,6.7,32,6.7c22.8,0,43.4-9.6,58-24.9c0.6,47.6,39.3,85.9,87,85.9
	c35.2,0,65.5-20.9,79.2-51c4,2.5,8.7,4,13.8,4c9.3,0,17.5-4.9,22.1-12.3c12.7,17.7,33.5,29.3,56.9,29.3c12,0,23.4-3,33.2-8.4
	c28,41.8,75.6,69.4,129.8,69.4c40.1,0,76.7-15.1,104.3-40c1.9,12.5,12.7,22,25.7,22c14.4,0,26-11.6,26-26c0-3.1-0.5-6.1-1.5-8.8
	c6,1.2,12.2,1.8,18.5,1.8c16.5,0,32-4.2,45.5-11.6c3.6,28,27.5,49.6,56.5,49.6c19.9,0,37.4-10.2,47.6-25.6
	c19.4,24.7,49.6,40.6,83.4,40.6c58.1,0,105.2-46.7,106-104.6c2.5,1,5.2,1.6,8,1.6c4.7,0,9.1-1.6,12.6-4.2
	c7.1,22.2,27.9,38.2,52.4,38.2c9.5,0,18.5-2.4,26.4-6.7C1641.7,159,1674,183,1712,183c14.9,0,28.9-3.7,41.2-10.2
	c-0.1,1.4-0.2,2.8-0.2,4.2c0,22.1,17.9,40,40,40s40-17.9,40-40c0-8.2-2.5-15.8-6.7-22.1c5.8,0.7,11.7,1.1,17.7,1.1
	c11.1,0,21.8-1.3,32.2-3.6c-0.1,1.2-0.2,2.4-0.2,3.6c0,19.3,15.7,35,35,35c3.1,0,6.1-0.4,9-1.2V0"/>
</svg>
