<?xml version="1.0" encoding="utf-8"?>
<!-- Generator: Adobe Illustrator 22.0.1, SVG Export Plug-In . SVG Version: 6.00 Build 0)  -->
<svg version="1.1" id="Calque_1" xmlns="http://www.w3.org/2000/svg" xmlns:xlink="http://www.w3.org/1999/xlink" x="0px" y="0px"
	 viewBox="0 0 200 200" style="enable-background:new 0 0 200 200;" xml:space="preserve">
<style type="text/css">
	.st0{fill:url(#SVGID_1_);}
	.st1{fill:url(#SVGID_2_);}
	.st2{fill:url(#SVGID_3_);}
</style>
<linearGradient id="SVGID_1_" gradientUnits="userSpaceOnUse" x1="22.5062" y1="70.4499" x2="81.6088" y2="70.4499" gradientTransform="matrix(0.8056 -1.198159e-02 -1.198159e-02 0.8056 26.2187 49.7924)">
	<stop  offset="0" style="stop-color:#FF6297"/>
	<stop  offset="1" style="stop-color:#FFA563"/>
</linearGradient>
<path class="st0" d="M46.5,83.9l16.2,16.2c3.5,3.5,3.4,9.3-0.2,12.9L47,128.5c-3.6,3.6-3.7,9.4-0.2,12.9l0,0
	c3.5,3.5,9.3,3.4,12.9-0.2l22-22l6.6-6.6c3.6-3.6,3.7-9.4,0.2-12.9l-6.4-6.4L59.6,70.8c-3.5-3.5-9.3-3.4-12.9,0.2l0,0
	C43.1,74.6,43,80.4,46.5,83.9z"/>
<linearGradient id="SVGID_2_" gradientUnits="userSpaceOnUse" x1="69.595" y1="71.1503" x2="128.6976" y2="71.1503" gradientTransform="matrix(0.8056 -1.198159e-02 -1.198159e-02 0.8056 26.2187 49.7924)">
	<stop  offset="0" style="stop-color:#FF6297"/>
	<stop  offset="1" style="stop-color:#FFA563"/>
</linearGradient>
<path class="st1" d="M84.4,83.9l16.2,16.2c3.5,3.5,3.4,9.3-0.2,12.9l-15.5,15.5c-3.6,3.6-3.7,9.4-0.2,12.9l0,0
	c3.5,3.5,9.3,3.4,12.9-0.2l22-22l6.6-6.6c3.6-3.6,3.7-9.4,0.2-12.9l-6.4-6.4L97.5,70.8c-3.5-3.5-9.3-3.4-12.9,0.2l0,0
	C81,74.6,80.9,80.4,84.4,83.9z"/>
<linearGradient id="SVGID_3_" gradientUnits="userSpaceOnUse" x1="116.6839" y1="71.8507" x2="175.7865" y2="71.8507" gradientTransform="matrix(0.8056 -1.198159e-02 -1.198159e-02 0.8056 26.2187 49.7924)">
	<stop  offset="0" style="stop-color:#FF6297"/>
	<stop  offset="1" style="stop-color:#FFA563"/>
</linearGradient>
<path class="st2" d="M122.4,83.9l16.2,16.2c3.5,3.5,3.4,9.3-0.2,12.9l-15.5,15.5c-3.6,3.6-3.7,9.4-0.2,12.9l0,0
	c3.5,3.5,9.3,3.4,12.9-0.2l22-22l6.6-6.6c3.6-3.6,3.7-9.4,0.2-12.9l-6.4-6.4l-22.6-22.6c-3.5-3.5-9.3-3.4-12.9,0.2l0,0
	C118.9,74.6,118.8,80.4,122.4,83.9z"/>
</svg>
