<?xml version="1.0" encoding="utf-8"?>
<!-- Generator: Adobe Illustrator 22.0.1, SVG Export Plug-In . SVG Version: 6.00 Build 0)  -->
<svg version="1.1" id="Calque_1" xmlns="http://www.w3.org/2000/svg" xmlns:xlink="http://www.w3.org/1999/xlink" x="0px" y="0px"
	 viewBox="0 0 200 200" style="enable-background:new 0 0 200 200;" xml:space="preserve">
<style type="text/css">
	.st0{fill:url(#SVGID_1_);}
	.st1{fill:url(#SVGID_2_);}
	.st2{fill:url(#SVGID_3_);}
	.st3{fill:url(#SVGID_4_);}
	.st4{fill:url(#SVGID_5_);}
	.st5{fill:url(#SVGID_6_);}
	.st6{fill:url(#SVGID_7_);}
	.st7{fill:url(#SVGID_8_);}
	.st8{fill:url(#SVGID_9_);}
	.st9{fill:url(#SVGID_10_);}
</style>
<linearGradient id="SVGID_1_" gradientUnits="userSpaceOnUse" x1="22.5062" y1="70.4499" x2="81.6088" y2="70.4499" gradientTransform="matrix(0.8056 -1.198159e-02 -1.198159e-02 0.8056 26.2187 49.7924)">
	<stop  offset="0" style="stop-color:#FF6297"/>
	<stop  offset="1" style="stop-color:#FFA563"/>
</linearGradient>
<path class="st0" d="M46.5,83.9l16.2,16.2c3.5,3.5,3.4,9.3-0.2,12.9L47,128.5c-3.6,3.6-3.7,9.4-0.2,12.9l0,0
	c3.5,3.5,9.3,3.4,12.9-0.2l22-22l6.6-6.6c3.6-3.6,3.7-9.4,0.2-12.9l-6.4-6.4L59.6,70.8c-3.5-3.5-9.3-3.4-12.9,0.2l0,0
	C43.1,74.6,43,80.4,46.5,83.9z"/>
<linearGradient id="SVGID_2_" gradientUnits="userSpaceOnUse" x1="69.595" y1="71.1503" x2="128.6976" y2="71.1503" gradientTransform="matrix(0.8056 -1.198159e-02 -1.198159e-02 0.8056 26.2187 49.7924)">
	<stop  offset="0" style="stop-color:#FF6297"/>
	<stop  offset="1" style="stop-color:#FFA563"/>
</linearGradient>
<path class="st1" d="M84.4,83.9l16.2,16.2c3.5,3.5,3.4,9.3-0.2,12.9l-15.5,15.5c-3.6,3.6-3.7,9.4-0.2,12.9l0,0
	c3.5,3.5,9.3,3.4,12.9-0.2l22-22l6.6-6.6c3.6-3.6,3.7-9.4,0.2-12.9l-6.4-6.4L97.5,70.8c-3.5-3.5-9.3-3.4-12.9,0.2l0,0
	C81,74.6,80.9,80.4,84.4,83.9z"/>
<linearGradient id="SVGID_3_" gradientUnits="userSpaceOnUse" x1="116.6839" y1="71.8507" x2="175.7865" y2="71.8507" gradientTransform="matrix(0.8056 -1.198159e-02 -1.198159e-02 0.8056 26.2187 49.7924)">
	<stop  offset="0" style="stop-color:#FF6297"/>
	<stop  offset="1" style="stop-color:#FFA563"/>
</linearGradient>
<path class="st2" d="M122.4,83.9l16.2,16.2c3.5,3.5,3.4,9.3-0.2,12.9l-15.5,15.5c-3.6,3.6-3.7,9.4-0.2,12.9l0,0
	c3.5,3.5,9.3,3.4,12.9-0.2l22-22l6.6-6.6c3.6-3.6,3.7-9.4,0.2-12.9l-6.4-6.4l-22.6-22.6c-3.5-3.5-9.3-3.4-12.9,0.2l0,0
	C118.9,74.6,118.8,80.4,122.4,83.9z"/>
<g>
	<linearGradient id="SVGID_4_" gradientUnits="userSpaceOnUse" x1="47.2992" y1="51.2964" x2="57.4989" y2="51.2964">
		<stop  offset="0" style="stop-color:#FF6297"/>
		<stop  offset="1" style="stop-color:#FFA563"/>
	</linearGradient>
	<path class="st3" d="M47.5,44c-0.1,0-0.2,0.1-0.2,0.2v3.1c0,0.1,0.1,0.2,0.2,0.2h2.9v11c0,0.1,0.1,0.2,0.2,0.2h3.7
		c0.1,0,0.2-0.1,0.2-0.2v-11h2.9c0.1,0,0.2-0.1,0.2-0.2v-3.1c0-0.1-0.1-0.2-0.2-0.2H47.5z"/>
	<linearGradient id="SVGID_5_" gradientUnits="userSpaceOnUse" x1="58.7711" y1="51.2964" x2="71.9485" y2="51.2964">
		<stop  offset="0" style="stop-color:#FF6297"/>
		<stop  offset="1" style="stop-color:#FFA563"/>
	</linearGradient>
	<path class="st4" d="M68,44c-0.1,0-0.2,0.1-0.2,0.2v5.3h-5v-5.3c0-0.1-0.1-0.2-0.2-0.2H59c-0.1,0-0.2,0.1-0.2,0.2v14.3
		c0,0.1,0.1,0.2,0.2,0.2h3.7c0.1,0,0.2-0.1,0.2-0.2v-5.7h5v5.7c0,0.1,0.1,0.2,0.2,0.2h3.7c0.1,0,0.2-0.1,0.2-0.2V44.1
		c0-0.1-0.1-0.2-0.2-0.2H68z"/>
	<linearGradient id="SVGID_6_" gradientUnits="userSpaceOnUse" x1="74.5669" y1="51.2964" x2="78.6612" y2="51.2964">
		<stop  offset="0" style="stop-color:#FF6297"/>
		<stop  offset="1" style="stop-color:#FFA563"/>
	</linearGradient>
	<path class="st5" d="M74.8,44c-0.1,0-0.2,0.1-0.2,0.2v14.3c0,0.1,0.1,0.2,0.2,0.2h3.7c0.1,0,0.2-0.1,0.2-0.2V44.1
		c0-0.1-0.1-0.2-0.2-0.2H74.8z"/>
	<linearGradient id="SVGID_7_" gradientUnits="userSpaceOnUse" x1="80.6345" y1="51.2964" x2="91.5738" y2="51.2964">
		<stop  offset="0" style="stop-color:#FF6297"/>
		<stop  offset="1" style="stop-color:#FFA563"/>
	</linearGradient>
	<path class="st6" d="M87.9,49.5c-0.3-0.1-0.6-0.2-0.9-0.3c-0.3-0.1-0.6-0.2-0.8-0.3c-0.2-0.1-0.4-0.2-0.5-0.4
		c-0.1-0.1-0.2-0.3-0.2-0.5c0-0.3,0.1-0.5,0.4-0.7c0.3-0.2,0.6-0.3,1.1-0.3c0.4,0,0.7,0.1,1.1,0.2c0.4,0.1,0.8,0.4,1.2,0.7
		c0,0,0.1,0.1,0.2,0c0.1,0,0.1,0,0.1-0.1L91,45c0-0.1,0-0.2-0.1-0.3c-0.7-0.4-1.5-0.7-2.3-0.9c-1.6-0.4-3.2-0.4-4.4,0.1
		c-0.6,0.2-1.2,0.6-1.6,1c-0.4,0.4-0.8,0.9-1,1.5c-0.2,0.6-0.4,1.3-0.4,2s0.1,1.3,0.3,1.8c0.2,0.5,0.5,0.9,0.9,1.2
		c0.4,0.3,0.8,0.6,1.3,0.8c0.5,0.2,0.9,0.4,1.4,0.5c0.4,0.1,0.7,0.3,1,0.4c0.3,0.1,0.5,0.2,0.6,0.3c0.2,0.1,0.3,0.2,0.3,0.4
		c0.1,0.1,0.1,0.3,0.1,0.5c0,0.3-0.1,0.6-0.4,0.8c-0.3,0.2-0.7,0.4-1.2,0.4c-0.5,0-1-0.1-1.5-0.3c-0.5-0.2-1.1-0.6-1.6-1.1
		c0,0-0.1-0.1-0.2,0c-0.1,0-0.1,0-0.1,0.1l-1.6,3c0,0.1,0,0.2,0.1,0.2c1.6,1.1,3.3,1.6,5.1,1.6c0.9,0,1.7-0.1,2.4-0.4
		c0.7-0.2,1.3-0.6,1.8-1c0.5-0.4,0.9-1,1.1-1.6c0.3-0.6,0.4-1.3,0.4-2.1c0-1.1-0.3-2.1-0.9-2.8C90.1,50.5,89.2,50,87.9,49.5z"/>
	<linearGradient id="SVGID_8_" gradientUnits="userSpaceOnUse" x1="98.479" y1="51.2964" x2="120.588" y2="51.2964">
		<stop  offset="0" style="stop-color:#FF6297"/>
		<stop  offset="1" style="stop-color:#FFA563"/>
	</linearGradient>
	<path class="st7" d="M120.6,44c0,0-0.1-0.1-0.2-0.1h-3.9c-0.1,0-0.2,0.1-0.2,0.1l-2.3,8.6l-2.8-8.6c0-0.1-0.1-0.1-0.2-0.1h-3
		c-0.1,0-0.2,0.1-0.2,0.1l-2.8,8.6l-2.3-8.6c0-0.1-0.1-0.1-0.2-0.1h-3.9c-0.1,0-0.1,0-0.2,0.1c0,0,0,0.1,0,0.2l4.3,14.3
		c0,0.1,0.1,0.1,0.2,0.1h3.8c0.1,0,0.2-0.1,0.2-0.1l2.6-7.8l2.6,7.8c0,0.1,0.1,0.1,0.2,0.1h3.8c0.1,0,0.2-0.1,0.2-0.1l4.3-14.3
		C120.6,44.1,120.6,44.1,120.6,44z"/>
	<linearGradient id="SVGID_9_" gradientUnits="userSpaceOnUse" x1="119.5832" y1="51.2964" x2="134.905" y2="51.2964">
		<stop  offset="0" style="stop-color:#FF6297"/>
		<stop  offset="1" style="stop-color:#FFA563"/>
	</linearGradient>
	<path class="st8" d="M129.3,44h-4.1c-0.1,0-0.1,0-0.2,0.1l-5.4,14.3c0,0.1,0,0.1,0,0.2s0.1,0.1,0.2,0.1h4c0.1,0,0.2-0.1,0.2-0.1
		l0.8-2.4h5l0.8,2.4c0,0.1,0.1,0.1,0.2,0.1h4c0.1,0,0.1,0,0.2-0.1s0-0.1,0-0.2l-5.4-14.3C129.4,44,129.4,44,129.3,44z M128.6,52.9
		h-2.8l1.4-4L128.6,52.9z"/>
	<linearGradient id="SVGID_10_" gradientUnits="userSpaceOnUse" x1="133.0461" y1="51.2964" x2="147.5902" y2="51.2964">
		<stop  offset="0" style="stop-color:#FF6297"/>
		<stop  offset="1" style="stop-color:#FFA563"/>
	</linearGradient>
	<path class="st9" d="M147.4,44H143c-0.1,0-0.1,0-0.2,0.1l-2.5,3.7l-2.5-3.7c0-0.1-0.1-0.1-0.2-0.1h-4.4c-0.1,0-0.1,0-0.2,0.1
		c0,0.1,0,0.1,0,0.2l5.2,7.4v6.8c0,0.1,0.1,0.2,0.2,0.2h3.7c0.1,0,0.2-0.1,0.2-0.2v-6.8l5.2-7.4c0-0.1,0-0.1,0-0.2
		C147.5,44,147.5,44,147.4,44z"/>
</g>
</svg>
