<?xml version="1.0" encoding="utf-8"?>
<!-- Generator: Adobe Illustrator 22.0.1, SVG Export Plug-In . SVG Version: 6.00 Build 0)  -->
<svg version="1.1" id="Calque_1" xmlns="http://www.w3.org/2000/svg" xmlns:xlink="http://www.w3.org/1999/xlink" x="0px" y="0px"
	 viewBox="0 0 200 200" style="enable-background:new 0 0 200 200;" xml:space="preserve">
<style type="text/css">
	.st0{fill:url(#SVGID_1_);}
	.st1{fill:url(#SVGID_2_);}
	.st2{fill:url(#SVGID_3_);}
</style>
<linearGradient id="SVGID_1_" gradientUnits="userSpaceOnUse" x1="36.0719" y1="64.4449" x2="95.1745" y2="64.4449" gradientTransform="matrix(1.198159e-02 0.8056 -0.8056 -1.198159e-02 153.4857 25.2012)">
	<stop  offset="0" style="stop-color:#FF6297"/>
	<stop  offset="1" style="stop-color:#FFA563"/>
</linearGradient>
<path class="st0" d="M124.3,56.5l-16.2,16.2c-3.5,3.5-9.3,3.4-12.9-0.2L79.8,57c-3.6-3.6-9.4-3.7-12.9-0.2l0,0
	c-3.5,3.5-3.4,9.3,0.2,12.9l22,22l6.6,6.6c3.6,3.6,9.4,3.7,12.9,0.2l6.4-6.4l22.6-22.6c3.5-3.5,3.4-9.3-0.2-12.9v0
	C133.6,53.1,127.9,53,124.3,56.5z"/>
<linearGradient id="SVGID_2_" gradientUnits="userSpaceOnUse" x1="83.1607" y1="65.1453" x2="142.2633" y2="65.1453" gradientTransform="matrix(1.198159e-02 0.8056 -0.8056 -1.198159e-02 153.4857 25.2012)">
	<stop  offset="0" style="stop-color:#FF6297"/>
	<stop  offset="1" style="stop-color:#FFA563"/>
</linearGradient>
<path class="st1" d="M124.3,94.4l-16.2,16.2c-3.5,3.5-9.3,3.4-12.9-0.2L79.8,94.9c-3.6-3.6-9.4-3.7-12.9-0.2l0,0
	c-3.5,3.5-3.4,9.3,0.2,12.9l22,22l6.6,6.6c3.6,3.6,9.4,3.7,12.9,0.2l6.4-6.4l22.6-22.6c3.5-3.5,3.4-9.3-0.2-12.9v0
	C133.6,91,127.9,90.9,124.3,94.4z"/>
<linearGradient id="SVGID_3_" gradientUnits="userSpaceOnUse" x1="130.2496" y1="65.8456" x2="189.3521" y2="65.8456" gradientTransform="matrix(1.198159e-02 0.8056 -0.8056 -1.198159e-02 153.4857 25.2012)">
	<stop  offset="0" style="stop-color:#FF6297"/>
	<stop  offset="1" style="stop-color:#FFA563"/>
</linearGradient>
<path class="st2" d="M124.3,132.3l-16.2,16.2c-3.5,3.5-9.3,3.4-12.9-0.2l-15.5-15.5c-3.6-3.6-9.4-3.7-12.9-0.2l0,0
	c-3.5,3.5-3.4,9.3,0.2,12.9l22,22l6.6,6.6c3.6,3.6,9.4,3.7,12.9,0.2l6.4-6.4l22.6-22.6c3.5-3.5,3.4-9.3-0.2-12.9v0
	C133.6,128.9,127.9,128.8,124.3,132.3z"/>
</svg>
