<?xml version="1.0" encoding="utf-8"?>
<!-- Generator: Adobe Illustrator 22.0.1, SVG Export Plug-In . SVG Version: 6.00 Build 0)  -->
<svg version="1.1" id="Calque_1" xmlns="http://www.w3.org/2000/svg" xmlns:xlink="http://www.w3.org/1999/xlink" x="0px" y="0px"
	 viewBox="0 0 200 200" style="enable-background:new 0 0 200 200;" xml:space="preserve">
<style type="text/css">
	.st0{fill:url(#SVGID_1_);}
	.st1{fill:url(#SVGID_2_);}
	.st2{fill:url(#SVGID_3_);}
	.st3{fill:url(#SVGID_4_);}
	.st4{fill:url(#SVGID_5_);}
	.st5{fill:url(#SVGID_6_);}
	.st6{fill:url(#SVGID_7_);}
	.st7{fill:url(#SVGID_8_);}
	.st8{fill:url(#SVGID_9_);}
	.st9{fill:url(#SVGID_10_);}
</style>
<linearGradient id="SVGID_1_" gradientUnits="userSpaceOnUse" x1="36.0719" y1="64.4449" x2="95.1745" y2="64.4449" gradientTransform="matrix(1.198159e-02 0.8056 -0.8056 -1.198159e-02 153.4857 25.2012)">
	<stop  offset="0" style="stop-color:#FF6297"/>
	<stop  offset="1" style="stop-color:#FFA563"/>
</linearGradient>
<path class="st0" d="M124.3,56.5l-16.2,16.2c-3.5,3.5-9.3,3.4-12.9-0.2L79.8,57c-3.6-3.6-9.4-3.7-12.9-0.2l0,0
	c-3.5,3.5-3.4,9.3,0.2,12.9l22,22l6.6,6.6c3.6,3.6,9.4,3.7,12.9,0.2l6.4-6.4l22.6-22.6c3.5-3.5,3.4-9.3-0.2-12.9v0
	C133.6,53.1,127.9,53,124.3,56.5z"/>
<linearGradient id="SVGID_2_" gradientUnits="userSpaceOnUse" x1="83.1607" y1="65.1453" x2="142.2633" y2="65.1453" gradientTransform="matrix(1.198159e-02 0.8056 -0.8056 -1.198159e-02 153.4857 25.2012)">
	<stop  offset="0" style="stop-color:#FF6297"/>
	<stop  offset="1" style="stop-color:#FFA563"/>
</linearGradient>
<path class="st1" d="M124.3,94.4l-16.2,16.2c-3.5,3.5-9.3,3.4-12.9-0.2L79.8,94.9c-3.6-3.6-9.4-3.7-12.9-0.2l0,0
	c-3.5,3.5-3.4,9.3,0.2,12.9l22,22l6.6,6.6c3.6,3.6,9.4,3.7,12.9,0.2l6.4-6.4l22.6-22.6c3.5-3.5,3.4-9.3-0.2-12.9v0
	C133.6,91,127.9,90.9,124.3,94.4z"/>
<linearGradient id="SVGID_3_" gradientUnits="userSpaceOnUse" x1="130.2496" y1="65.8456" x2="189.3521" y2="65.8456" gradientTransform="matrix(1.198159e-02 0.8056 -0.8056 -1.198159e-02 153.4857 25.2012)">
	<stop  offset="0" style="stop-color:#FF6297"/>
	<stop  offset="1" style="stop-color:#FFA563"/>
</linearGradient>
<path class="st2" d="M124.3,132.3l-16.2,16.2c-3.5,3.5-9.3,3.4-12.9-0.2l-15.5-15.5c-3.6-3.6-9.4-3.7-12.9-0.2l0,0
	c-3.5,3.5-3.4,9.3,0.2,12.9l22,22l6.6,6.6c3.6,3.6,9.4,3.7,12.9,0.2l6.4-6.4l22.6-22.6c3.5-3.5,3.4-9.3-0.2-12.9v0
	C133.6,128.9,127.9,128.8,124.3,132.3z"/>
<g>
	<linearGradient id="SVGID_4_" gradientUnits="userSpaceOnUse" x1="51.709" y1="31.2964" x2="61.9087" y2="31.2964">
		<stop  offset="0" style="stop-color:#FF6297"/>
		<stop  offset="1" style="stop-color:#FFA563"/>
	</linearGradient>
	<path class="st3" d="M51.9,24c-0.1,0-0.2,0.1-0.2,0.2v3.1c0,0.1,0.1,0.2,0.2,0.2h2.9v11c0,0.1,0.1,0.2,0.2,0.2h3.7
		c0.1,0,0.2-0.1,0.2-0.2v-11h2.9c0.1,0,0.2-0.1,0.2-0.2v-3.1c0-0.1-0.1-0.2-0.2-0.2H51.9z"/>
	<linearGradient id="SVGID_5_" gradientUnits="userSpaceOnUse" x1="63.1809" y1="31.2964" x2="76.3583" y2="31.2964">
		<stop  offset="0" style="stop-color:#FF6297"/>
		<stop  offset="1" style="stop-color:#FFA563"/>
	</linearGradient>
	<path class="st4" d="M72.5,24c-0.1,0-0.2,0.1-0.2,0.2v5.3h-5v-5.3c0-0.1-0.1-0.2-0.2-0.2h-3.7c-0.1,0-0.2,0.1-0.2,0.2v14.3
		c0,0.1,0.1,0.2,0.2,0.2h3.7c0.1,0,0.2-0.1,0.2-0.2v-5.7h5v5.7c0,0.1,0.1,0.2,0.2,0.2h3.7c0.1,0,0.2-0.1,0.2-0.2V24.1
		c0-0.1-0.1-0.2-0.2-0.2H72.5z"/>
	<linearGradient id="SVGID_6_" gradientUnits="userSpaceOnUse" x1="78.9767" y1="31.2964" x2="83.071" y2="31.2964">
		<stop  offset="0" style="stop-color:#FF6297"/>
		<stop  offset="1" style="stop-color:#FFA563"/>
	</linearGradient>
	<path class="st5" d="M79.2,24C79.1,24,79,24,79,24.1v14.3c0,0.1,0.1,0.2,0.2,0.2h3.7c0.1,0,0.2-0.1,0.2-0.2V24.1
		c0-0.1-0.1-0.2-0.2-0.2H79.2z"/>
	<linearGradient id="SVGID_7_" gradientUnits="userSpaceOnUse" x1="85.0443" y1="31.2964" x2="95.9836" y2="31.2964">
		<stop  offset="0" style="stop-color:#FF6297"/>
		<stop  offset="1" style="stop-color:#FFA563"/>
	</linearGradient>
	<path class="st6" d="M92.3,29.5c-0.3-0.1-0.6-0.2-0.9-0.3c-0.3-0.1-0.6-0.2-0.8-0.3c-0.2-0.1-0.4-0.2-0.5-0.4
		c-0.1-0.1-0.2-0.3-0.2-0.5c0-0.3,0.1-0.5,0.4-0.7c0.3-0.2,0.6-0.3,1.1-0.3c0.4,0,0.7,0.1,1.1,0.2c0.4,0.1,0.8,0.4,1.2,0.7
		c0,0,0.1,0.1,0.2,0c0.1,0,0.1,0,0.1-0.1l1.5-2.9c0-0.1,0-0.2-0.1-0.3c-0.7-0.4-1.5-0.7-2.3-0.9c-1.6-0.4-3.2-0.4-4.4,0.1
		c-0.6,0.2-1.2,0.6-1.6,1c-0.4,0.4-0.8,0.9-1,1.5c-0.2,0.6-0.4,1.3-0.4,2s0.1,1.3,0.3,1.8c0.2,0.5,0.5,0.9,0.9,1.2
		c0.4,0.3,0.8,0.6,1.3,0.8c0.5,0.2,0.9,0.4,1.4,0.5c0.4,0.1,0.7,0.3,1,0.4c0.3,0.1,0.5,0.2,0.6,0.3c0.2,0.1,0.3,0.2,0.3,0.4
		c0.1,0.1,0.1,0.3,0.1,0.5c0,0.3-0.1,0.6-0.4,0.8c-0.3,0.2-0.7,0.4-1.2,0.4c-0.5,0-1-0.1-1.5-0.3c-0.5-0.2-1.1-0.6-1.6-1.1
		c0,0-0.1-0.1-0.2,0c-0.1,0-0.1,0-0.1,0.1l-1.6,3c0,0.1,0,0.2,0.1,0.2c1.6,1.1,3.3,1.6,5.1,1.6c0.9,0,1.7-0.1,2.4-0.4
		c0.7-0.2,1.3-0.6,1.8-1c0.5-0.4,0.9-1,1.1-1.6c0.3-0.6,0.4-1.3,0.4-2.1c0-1.1-0.3-2.1-0.9-2.8C94.5,30.5,93.6,30,92.3,29.5z"/>
	<linearGradient id="SVGID_8_" gradientUnits="userSpaceOnUse" x1="102.8888" y1="31.2964" x2="124.9978" y2="31.2964">
		<stop  offset="0" style="stop-color:#FF6297"/>
		<stop  offset="1" style="stop-color:#FFA563"/>
	</linearGradient>
	<path class="st7" d="M125,24c0,0-0.1-0.1-0.2-0.1h-3.9c-0.1,0-0.2,0.1-0.2,0.1l-2.3,8.6l-2.8-8.6c0-0.1-0.1-0.1-0.2-0.1h-3
		c-0.1,0-0.2,0.1-0.2,0.1l-2.8,8.6l-2.3-8.6c0-0.1-0.1-0.1-0.2-0.1h-3.9c-0.1,0-0.1,0-0.2,0.1c0,0,0,0.1,0,0.2l4.3,14.3
		c0,0.1,0.1,0.1,0.2,0.1h3.8c0.1,0,0.2-0.1,0.2-0.1l2.6-7.8l2.6,7.8c0,0.1,0.1,0.1,0.2,0.1h3.8c0.1,0,0.2-0.1,0.2-0.1l4.3-14.3
		C125,24.1,125,24.1,125,24z"/>
	<linearGradient id="SVGID_9_" gradientUnits="userSpaceOnUse" x1="123.993" y1="31.2964" x2="139.3147" y2="31.2964">
		<stop  offset="0" style="stop-color:#FF6297"/>
		<stop  offset="1" style="stop-color:#FFA563"/>
	</linearGradient>
	<path class="st8" d="M133.7,24h-4.1c-0.1,0-0.2,0-0.2,0.1L124,38.4c0,0.1,0,0.1,0,0.2s0.1,0.1,0.2,0.1h4c0.1,0,0.2-0.1,0.2-0.1
		l0.8-2.4h5l0.8,2.4c0,0.1,0.1,0.1,0.2,0.1h4c0.1,0,0.1,0,0.2-0.1c0-0.1,0-0.1,0-0.2l-5.4-14.3C133.8,24,133.8,24,133.7,24z
		 M133.1,32.9h-2.8l1.4-4L133.1,32.9z"/>
	<linearGradient id="SVGID_10_" gradientUnits="userSpaceOnUse" x1="137.4559" y1="31.2964" x2="152" y2="31.2964">
		<stop  offset="0" style="stop-color:#FF6297"/>
		<stop  offset="1" style="stop-color:#FFA563"/>
	</linearGradient>
	<path class="st9" d="M151.8,24h-4.4c-0.1,0-0.1,0-0.2,0.1l-2.5,3.7l-2.5-3.7c0-0.1-0.1-0.1-0.2-0.1h-4.4c-0.1,0-0.1,0-0.2,0.1
		c0,0.1,0,0.1,0,0.2l5.2,7.4v6.8c0,0.1,0.1,0.2,0.2,0.2h3.7c0.1,0,0.2-0.1,0.2-0.2v-6.8l5.2-7.4c0-0.1,0-0.1,0-0.2
		S151.9,24,151.8,24z"/>
</g>
</svg>
